<svg width="1440" height="128" viewBox="0 0 1440 128" fill="none" xmlns="http://www.w3.org/2000/svg">
<g style="mix-blend-mode:luminosity">
<path d="M-4.24281 73.6828C-2.45992 73.6828 -0.562613 73.3587 1.36329 72.5292C1.51584 72.472 1.54444 72.4052 1.54444 72.2622C1.48723 71.7283 1.42051 70.956 1.42051 70.3649V52.4407C1.42051 52.3262 1.42051 52.269 1.2775 52.269H-1.95459C-2.07853 52.269 -2.13575 52.3262 -2.13575 52.4788V58.5521C-2.64107 58.4949 -2.99383 58.4663 -3.41334 58.4663C-8.62854 58.4663 -11.832 61.9081 -11.832 66.208C-11.832 71.1944 -8.54274 73.6828 -4.24281 73.6828ZM-2.13576 70.3649C-2.66967 70.5365 -3.26079 70.6033 -3.86145 70.6033C-6.22593 70.6033 -8.16137 69.2685 -8.16137 66.0269C-8.16137 63.1571 -6.16872 61.46 -3.52775 61.46C-2.99383 61.46 -2.52666 61.5172 -2.13576 61.6698V70.3649Z" fill="#FA0C00"/>
<path d="M11.8553 58.4663C7.40284 58.4663 4.64746 61.8795 4.64746 66.0937C4.64746 69.8597 6.84032 73.6829 11.7886 73.6829C15.9741 73.6829 18.9106 70.6033 18.9106 65.9983C18.9106 61.9368 16.4222 58.4663 11.8553 58.4663ZM11.6742 61.46C14.1912 61.46 15.259 63.6243 15.259 66.0937C15.259 69.1446 13.6859 70.6605 11.8553 70.6605C9.5957 70.6605 8.26092 68.7632 8.26092 66.0269C8.26092 63.2143 9.68151 61.46 11.6742 61.46Z" fill="#FA0C00"/>
<path d="M22.2517 52.2689C22.1278 52.2689 22.042 52.3261 22.042 52.4787V72.7674C22.042 72.8532 22.1278 73.0058 22.2517 73.0344C23.6723 73.4729 25.1597 73.6827 26.6947 73.6827C31.0899 73.6827 35.3612 70.9559 35.3612 65.4642C35.3612 61.4885 32.6345 58.4661 28.3631 58.4661C27.3811 58.4661 26.4658 58.6187 25.665 58.8856L25.6268 52.5073C25.6268 52.2975 25.5696 52.2689 25.3599 52.2689H22.2517ZM31.7096 65.8265C31.7096 69.1158 29.4596 70.6604 27.0284 70.6604C26.5231 70.6604 26.0749 70.6318 25.665 70.5078V61.8508C26.1322 61.6696 26.6947 61.5171 27.7339 61.5171C30.0793 61.5171 31.7096 63.0044 31.7096 65.8265Z" fill="#FA0C00"/>
<path d="M47.4232 66.8944C48.8724 66.8944 50.0642 66.8658 50.4742 66.7705C50.6267 66.7419 50.6839 66.6847 50.7125 66.5607C50.7983 66.2365 50.8365 65.5596 50.8365 64.7301C50.8365 61.908 49.1394 58.4662 44.7537 58.4662C40.2726 58.4662 37.7842 62.1178 37.7842 66.2365C37.7842 69.8881 39.7101 73.6828 45.1064 73.6828C47.1277 73.6828 48.4339 73.3586 49.5589 72.8247C49.6733 72.7675 49.7305 72.6721 49.7305 72.5005V70.0312C49.7305 69.8881 49.6447 69.8595 49.5589 69.9167C48.4339 70.3935 47.2135 70.6318 45.8787 70.6318C42.8564 70.6318 41.4834 68.9633 41.3976 66.8944H47.4232ZM41.3976 64.3392C41.636 62.8901 42.5513 61.3169 44.6011 61.3169C46.8607 61.3169 47.4518 63.2142 47.4518 64.0723C47.4518 64.1009 47.4518 64.2248 47.4518 64.3106C47.3279 64.3392 46.9465 64.3392 45.8215 64.3392H41.3976Z" fill="#FA0C00"/>
</g>
<g style="mix-blend-mode:luminosity" clip-path="url(#clip0_24277_1998)">
<path d="M130.29 71.0833C127.107 71.0833 125 68.6718 124.412 67.7377C125.166 61.8285 127.373 59.9601 130.29 59.9601C133.174 59.9601 135.415 62.2195 135.415 65.5216C135.415 68.8239 133.174 71.0833 130.29 71.0833ZM130.29 56.332C125.099 56.332 122.193 59.6451 121.361 63.0559C120.419 61.3179 119.72 58.9934 119.176 56.8317H112V65.576C112 68.7479 110.525 71.0942 107.641 71.0942C104.757 71.0942 103.104 68.7479 103.104 65.576L103.137 56.8317H99V65.576C99 68.1287 99.843 70.4425 101.385 72.0935C102.971 73.7989 105.134 74.6896 107.641 74.6896C112.632 74.6896 116.115 70.9421 116.115 65.576V59.6994C116.636 61.6329 117.879 65.3479 120.252 68.6067L118.034 80.9791H122.238L123.702 72.213C124.179 72.604 124.689 72.9516 125.232 73.2667C126.641 74.1357 128.249 74.6245 129.913 74.6788C129.913 74.6788 130.168 74.6896 130.302 74.6896C135.448 74.6896 139.541 70.7901 139.541 65.5216C139.541 60.2534 135.437 56.332 130.29 56.332Z" fill="#14A800"/>
<path d="M189.731 58.7014V56.8331H185.672V74.137H189.787V67.3589C189.787 63.1877 190.175 60.1896 195.888 60.5807V56.6267C193.225 56.4312 191.151 56.9743 189.731 58.7014Z" fill="#14A800"/>
<path d="M161.16 56.834L158.176 68.9348L154.993 56.834H149.758L146.563 68.9348L143.591 56.834H139.42L143.99 74.1489H148.937L152.375 61.8525L155.781 74.1489H160.728L165.564 56.834H161.16Z" fill="#14A800"/>
<path d="M174.626 71.0942C171.698 71.0942 169.502 68.8348 169.502 65.5216C169.502 62.2086 171.709 59.9601 174.626 59.9601C177.51 59.9601 179.751 62.2195 179.751 65.5216C179.751 68.8238 177.51 71.0942 174.626 71.0942ZM174.626 56.332C169.446 56.332 165.387 60.2643 165.387 65.5216C165.387 70.7791 169.446 74.6788 174.626 74.6788C179.773 74.6788 183.866 70.7791 183.866 65.5216C183.866 60.2643 179.784 56.332 174.626 56.332Z" fill="#14A800"/>
<path d="M201.79 65.6312H202.744L208.49 74.1473H213.137L206.527 64.7078C209.732 63.4804 211.884 60.2759 211.884 56.8325H207.78C207.78 60.5692 204.774 61.9813 201.79 61.9813V50H197.664V74.1473H201.779L201.79 65.6312Z" fill="#14A800"/>
</g>
<g style="mix-blend-mode:luminosity">
<path fill-rule="evenodd" clip-rule="evenodd" d="M340.707 60.5972C341.081 61.2429 341.204 61.9774 341.244 62.8032L341.297 63.9039V71.6007L341.352 72.7025C341.46 74.502 342.787 75.8325 344.601 75.9457L345.697 76V63.9039L345.751 62.8032C345.796 61.9867 345.917 61.2382 346.297 60.588C346.685 59.921 347.24 59.3677 347.909 58.9835C348.578 58.5993 349.336 58.3978 350.107 58.3992C350.878 58.4006 351.635 58.6049 352.303 58.9915C352.97 59.3781 353.524 59.9335 353.909 60.6018C354.283 61.2475 354.4 61.9959 354.445 62.8032L354.499 63.9005V71.6007L354.553 72.7025C354.666 74.5112 355.983 75.8418 357.802 75.9457L358.898 76V62.8032C358.898 60.4697 357.971 58.2317 356.322 56.5813C354.672 54.9309 352.434 54.0032 350.101 54.0023C348.852 54.001 347.617 54.2662 346.479 54.7803C345.34 55.2944 344.325 56.0454 343.5 56.9833C342.675 56.0458 341.659 55.2949 340.521 54.7807C339.383 54.2665 338.148 54.0007 336.899 54.0012C335.072 54.0012 333.377 54.5555 331.972 55.513C331.115 54.5567 329.198 54.0012 328.097 54.0012V76L329.198 75.9457C331.039 75.8244 332.369 74.5297 332.441 72.7025L332.5 71.6007V63.9039L332.554 62.8032C332.6 61.9728 332.716 61.2429 333.091 60.5926C333.479 59.9261 334.034 59.3728 334.703 58.9882C335.371 58.6035 336.128 58.4009 336.899 58.4005C337.671 58.4006 338.429 58.6037 339.097 58.9893C339.766 59.3748 340.321 59.9294 340.707 60.5972ZM265.399 75.9469L266.5 76H282.999L282.945 74.9028C282.796 73.0941 281.515 71.7728 279.7 71.655L278.6 71.6007H268.701L281.898 58.3993L281.844 57.3032C281.758 55.4761 280.423 54.1559 278.6 54.0554L277.499 54.0058L261 54.0012L261.054 55.1019C261.199 56.8932 262.498 58.2422 264.297 58.3462L265.399 58.4005H275.297L262.101 71.6018L262.155 72.7025C262.264 74.5159 263.572 75.8291 265.399 75.9457V75.9469ZM323.779 57.2212C324.8 58.2426 325.611 59.4552 326.164 60.7898C326.717 62.1244 327.001 63.5548 327.001 64.9994C327.001 66.444 326.717 67.8744 326.164 69.209C325.611 70.5436 324.8 71.7562 323.779 72.7776C321.715 74.8399 318.917 75.9983 315.999 75.9983C313.081 75.9983 310.283 74.8399 308.219 72.7776C303.924 68.4823 303.924 61.5166 308.219 57.2212C309.24 56.2002 310.451 55.3902 311.785 54.8375C313.119 54.2848 314.548 54.0002 315.992 54C317.438 53.999 318.87 54.2831 320.206 54.836C321.542 55.3889 322.756 56.1999 323.779 57.2224V57.2212ZM320.666 60.3362C321.903 61.5744 322.598 63.2531 322.598 65.0035C322.598 66.7538 321.903 68.4326 320.666 69.6707C319.428 70.908 317.749 71.6029 315.999 71.6029C314.248 71.6029 312.57 70.908 311.332 69.6707C310.094 68.4326 309.399 66.7538 309.399 65.0035C309.399 63.2531 310.094 61.5744 311.332 60.3362C312.57 59.099 314.248 58.404 315.999 58.404C317.749 58.404 319.428 59.099 320.666 60.3362ZM292.906 54C294.35 54.0004 295.78 54.2851 297.113 54.8381C298.447 55.391 299.659 56.2012 300.679 57.2224C304.976 61.5166 304.976 68.4834 300.679 72.7776C298.615 74.8399 295.817 75.9983 292.899 75.9983C289.982 75.9983 287.183 74.8399 285.119 72.7776C280.824 68.4823 280.824 61.5166 285.119 57.2212C286.14 56.2002 287.352 55.3902 288.685 54.8375C290.019 54.2848 291.449 54.0002 292.892 54H292.906ZM297.567 60.3339C298.804 61.5721 299.499 63.2511 299.499 65.0017C299.499 66.7524 298.804 68.4314 297.567 69.6696C296.328 70.9068 294.65 71.6018 292.899 71.6018C291.149 71.6018 289.47 70.9068 288.232 69.6696C286.995 68.4314 286.3 66.7527 286.3 65.0023C286.3 63.252 286.995 61.5732 288.232 60.335C289.47 59.0978 291.149 58.4028 292.899 58.4028C294.65 58.4028 296.328 59.0978 297.567 60.335V60.3339Z" fill="#2D8CFF"/>
</g>
<g style="mix-blend-mode:luminosity">
<path d="M460.47 70.8425V57.5279C460.47 57.3669 460.538 57.229 460.653 57.114C460.791 56.999 460.952 56.93 461.136 56.953H464.885C465.989 56.907 467.092 57.2749 467.943 57.9878C468.702 58.6777 469.093 59.7585 469.093 61.2302V61.4142C469.093 62.8859 468.702 63.9897 467.92 64.6796C467.046 65.3925 465.943 65.7834 464.816 65.7144H462.148V70.8425C462.148 71.0265 462.056 71.1874 461.895 71.2794C461.527 71.4864 461.09 71.4864 460.722 71.2794C460.561 71.1874 460.47 71.0265 460.47 70.8425ZM462.125 64.3347H464.816C465.529 64.3807 466.241 64.1277 466.747 63.6218C467.253 63.0469 467.506 62.288 467.437 61.5062V61.2762C467.506 60.5174 467.253 59.7585 466.747 59.1606C466.218 58.6777 465.529 58.4247 464.816 58.4707H462.148L462.125 64.3347Z" fill="#FF6C37"/>
<path d="M474.888 67.2322V61.2763C474.888 59.7815 475.279 58.7007 476.038 58.0109C477.877 56.6311 480.407 56.6311 482.247 58.0109C483.028 58.7007 483.419 59.8045 483.419 61.2763V67.2322C483.419 68.7269 483.028 69.8077 482.247 70.4976C480.407 71.9004 477.877 71.9004 476.038 70.4976C475.279 69.8077 474.888 68.7269 474.888 67.2322ZM476.567 67.2322C476.567 69.0949 477.417 70.0377 479.165 70.0377C479.878 70.0837 480.568 69.8307 481.097 69.3478C481.603 68.7729 481.833 68.0141 481.787 67.2322V61.2533C481.856 60.4944 481.603 59.7356 481.097 59.1377C480.568 58.6547 479.878 58.4018 479.165 58.4478C477.44 58.4478 476.59 59.3676 476.59 61.2533L476.567 67.2322Z" fill="#FF6C37"/>
<path d="M489.306 69.3938C489.306 69.1638 489.398 68.9568 489.536 68.7729C489.651 68.6119 489.812 68.4969 490.019 68.4739C490.203 68.4969 490.364 68.5889 490.479 68.7269C490.663 68.8879 490.847 69.0718 491.054 69.2788C491.33 69.5317 491.652 69.7157 491.997 69.8307C492.457 70.0147 492.963 70.0836 493.446 70.0836C494.181 70.1296 494.894 69.8997 495.469 69.4628C495.975 69.0028 496.251 68.313 496.205 67.6231C496.228 66.9562 495.998 66.3353 495.538 65.8524C495.078 65.3925 494.526 65.0475 493.906 64.8176C493.262 64.5876 492.641 64.3347 491.974 64.0587C491.33 63.7828 490.778 63.3688 490.341 62.8169C489.881 62.1961 489.628 61.4372 489.674 60.6553C489.651 60.0345 489.789 59.4136 490.065 58.8387C490.295 58.3558 490.663 57.9648 491.123 57.6889C491.56 57.4359 492.02 57.252 492.503 57.114C493.009 56.999 493.515 56.93 494.021 56.93C494.825 56.93 495.607 57.045 496.366 57.2749C497.102 57.5279 497.493 57.8498 497.493 58.2408C497.493 58.4477 497.424 58.6547 497.286 58.8387C497.194 59.0226 496.987 59.1606 496.78 59.1606C496.481 59.0686 496.182 58.9536 495.883 58.8157C495.308 58.5627 494.687 58.4247 494.044 58.4477C493.377 58.4247 492.687 58.5857 492.112 58.9306C491.606 59.2756 491.33 59.8735 491.376 60.4944C491.353 61.0693 491.583 61.6212 492.02 61.9891C492.503 62.38 493.055 62.702 493.653 62.8859C494.296 63.1159 494.94 63.3688 495.584 63.6678C496.228 63.9897 496.78 64.4727 497.194 65.0705C497.654 65.8064 497.884 66.6573 497.861 67.5311C497.861 68.8879 497.47 69.9227 496.665 70.6125C495.791 71.3484 494.664 71.7163 493.515 71.6474C492.48 71.6704 491.445 71.4174 490.548 70.9115C489.72 70.3596 489.306 69.8767 489.306 69.3938Z" fill="#FF6C37"/>
<path d="M502.805 57.6887C502.805 57.5047 502.851 57.3208 502.966 57.1828C503.058 57.0218 503.219 56.9528 503.403 56.9528H511.451C511.635 56.9528 511.796 57.0218 511.888 57.1828C512.003 57.3208 512.049 57.5047 512.049 57.6887C512.049 57.8727 512.003 58.0796 511.888 58.2406C511.796 58.4016 511.635 58.4706 511.451 58.4706H508.301V70.8423C508.301 71.0263 508.209 71.1873 508.048 71.2793C507.68 71.4862 507.243 71.4862 506.875 71.2793C506.714 71.1873 506.622 71.0263 506.622 70.8423V58.4706H503.426C503.242 58.4706 503.081 58.4016 502.989 58.2406C502.874 58.0796 502.805 57.8957 502.805 57.6887Z" fill="#FF6C37"/>
<path d="M517.706 70.8426V57.8039C517.637 57.413 517.913 57.0451 518.304 56.9761C518.396 56.9531 518.488 56.9531 518.557 56.9761C519.086 56.9761 519.523 57.321 519.891 58.0339L522.995 63.9898L526.123 58.0339C526.514 57.344 526.951 56.9761 527.457 56.9761C527.847 56.9071 528.215 57.183 528.284 57.574C528.307 57.643 528.307 57.7119 528.284 57.7809V70.8196C528.284 71.0036 528.192 71.1645 528.031 71.2565C527.664 71.4635 527.227 71.4635 526.859 71.2565C526.698 71.1645 526.606 71.0036 526.606 70.8196V60.4485L523.616 66.0594C523.524 66.3354 523.271 66.5424 522.972 66.5424C522.696 66.5194 522.443 66.3354 522.351 66.0594L519.362 60.3335V70.8196C519.362 71.0036 519.27 71.1645 519.109 71.2565C518.948 71.3715 518.741 71.4405 518.557 71.4405C518.35 71.4405 518.143 71.3945 517.982 71.2795C517.798 71.2105 517.683 71.0266 517.706 70.8426Z" fill="#FF6C37"/>
<path d="M533.964 70.7506C533.964 70.7046 533.987 70.6356 534.01 70.5896L538.057 57.5509C538.172 57.16 538.517 56.9761 539.069 56.9761C539.621 56.9761 539.966 57.16 540.081 57.5509L544.151 70.6586V70.7736C544.151 70.9805 544.013 71.1645 543.829 71.2565C543.622 71.3945 543.37 71.4634 543.094 71.4404C542.841 71.4634 542.588 71.3255 542.496 71.0725L541.622 68.175H536.425L535.551 71.0725C535.482 71.3255 535.206 71.4864 534.953 71.4634C534.723 71.4634 534.493 71.3945 534.286 71.2565C534.079 71.1645 533.964 70.9805 533.964 70.7506ZM536.839 66.7953H541.277L539.069 59.3906L536.839 66.7953Z" fill="#FF6C37"/>
<path d="M549.877 70.8423V57.5277C549.877 57.1368 550.153 56.9528 550.705 56.9528C550.958 56.9528 551.211 57.0448 551.418 57.2058C551.648 57.4358 551.855 57.7117 551.97 58.0107L556.914 67.6689V57.5277C556.914 57.3438 557.006 57.1828 557.167 57.1138C557.535 56.9069 557.972 56.9069 558.34 57.1138C558.501 57.2058 558.593 57.3668 558.593 57.5277V70.8423C558.593 71.0263 558.501 71.1873 558.34 71.2793C558.156 71.3942 557.972 71.4402 557.765 71.4402C557.305 71.4172 556.891 71.1183 556.73 70.6814L551.533 60.7242V70.8423C551.533 71.0263 551.441 71.1873 551.303 71.2793C550.935 71.4862 550.498 71.4862 550.13 71.2793C549.969 71.1873 549.877 71.0263 549.877 70.8423Z" fill="#FF6C37"/>
<path d="M452.812 67.1861C454.422 54.5844 445.522 43.0634 432.943 41.4537C420.365 39.844 408.798 48.7434 407.188 61.3222C405.578 73.9009 414.478 85.4448 427.057 87.0775C439.658 88.6872 451.179 79.7878 452.812 67.1861Z" fill="#FF6C37"/>
<path d="M438.302 56.0326L428.598 65.7369L425.861 63.0004C435.404 53.4571 436.347 54.2849 438.302 56.0326Z" fill="white"/>
<path d="M428.598 65.9669C428.529 65.9669 428.483 65.9439 428.437 65.898L425.677 63.1614C425.585 63.0695 425.585 62.9315 425.677 62.8395C435.382 53.1352 436.393 54.0551 438.44 55.8948C438.486 55.9407 438.509 55.9867 438.509 56.0557C438.509 56.1247 438.486 56.1707 438.44 56.2167L428.736 65.898C428.713 65.9439 428.644 65.9669 428.598 65.9669ZM426.183 63.0005L428.598 65.415L437.957 56.0557C436.255 54.538 435.106 54.0781 426.183 63.0005Z" fill="#FF6C37"/>
<path d="M431.38 68.5194L428.735 65.8749L438.44 56.1707C441.038 58.7922 437.152 63.0464 431.38 68.5194Z" fill="white"/>
<path d="M431.38 68.7494C431.311 68.7494 431.265 68.7264 431.219 68.6804L428.575 66.0359C428.529 65.9899 428.529 65.9439 428.529 65.8749C428.529 65.8059 428.552 65.7599 428.598 65.7139L438.302 56.0097C438.394 55.9177 438.532 55.9177 438.624 56.0097C439.222 56.5616 439.544 57.3434 439.521 58.1483C439.475 60.7008 436.577 63.9433 431.564 68.6804C431.495 68.7264 431.426 68.7494 431.38 68.7494ZM429.058 65.8749C430.529 67.3696 431.15 67.9675 431.38 68.1975C435.244 64.5182 438.992 60.7468 439.015 58.1483C439.038 57.5504 438.808 56.9525 438.417 56.4926L429.058 65.8749Z" fill="#FF6C37"/>
<path d="M425.907 63.0694L427.862 65.0241C427.908 65.0701 427.908 65.116 427.862 65.162C427.839 65.185 427.839 65.185 427.816 65.185L423.769 66.0589C423.562 66.0819 423.378 65.9439 423.332 65.7369C423.309 65.622 423.355 65.507 423.424 65.438L425.769 63.0924C425.815 63.0464 425.884 63.0234 425.907 63.0694Z" fill="white"/>
<path d="M423.7 66.2889C423.355 66.2889 423.102 66.0129 423.102 65.668C423.102 65.507 423.171 65.3461 423.286 65.2311L425.631 62.8855C425.769 62.7705 425.953 62.7705 426.091 62.8855L428.046 64.8402C428.184 64.9551 428.184 65.1621 428.046 65.3001C428 65.3461 427.954 65.3691 427.885 65.3921L423.838 66.2659C423.792 66.2659 423.746 66.2889 423.7 66.2889ZM425.838 63.3224L423.585 65.576C423.539 65.622 423.516 65.691 423.562 65.76C423.585 65.829 423.654 65.852 423.723 65.829L427.517 65.0011L425.838 63.3224Z" fill="#FF6C37"/>
<path d="M443.43 50.6519C441.958 49.2262 439.59 49.2721 438.164 50.7669C436.738 52.2616 436.784 54.6072 438.279 56.0329C439.498 57.2057 441.337 57.4127 442.786 56.5388L440.164 53.9173L443.43 50.6519Z" fill="white"/>
<path d="M440.854 57.2973C438.67 57.2973 436.899 55.5266 436.899 53.342C436.899 51.1574 438.67 49.3867 440.854 49.3867C441.866 49.3867 442.855 49.7776 443.591 50.4905C443.637 50.5365 443.66 50.5825 443.66 50.6515C443.66 50.7205 443.637 50.7665 443.591 50.8125L440.486 53.9169L442.924 56.3545C443.016 56.4464 443.016 56.5844 442.924 56.6764C442.901 56.6994 442.901 56.6994 442.878 56.7224C442.28 57.0903 441.567 57.2973 440.854 57.2973ZM440.854 49.8696C438.923 49.8696 437.359 51.4333 437.382 53.365C437.382 55.2967 438.946 56.8604 440.877 56.8374C441.406 56.8374 441.935 56.7224 442.418 56.4694L440.003 54.0779C439.957 54.0319 439.934 53.9859 439.934 53.9169C439.934 53.8479 439.957 53.8019 440.003 53.7559L443.085 50.6745C442.464 50.1456 441.682 49.8696 440.854 49.8696Z" fill="#FF6C37"/>
<path d="M443.499 50.7207L443.453 50.6747L440.164 53.9173L442.763 56.5157C443.016 56.3547 443.269 56.1707 443.476 55.9638C444.948 54.515 444.948 52.1695 443.499 50.7207Z" fill="white"/>
<path d="M442.786 56.7685C442.717 56.7685 442.671 56.7455 442.625 56.6995L440.003 54.0779C439.957 54.0319 439.934 53.9859 439.934 53.9169C439.934 53.8479 439.957 53.8019 440.003 53.7559L443.269 50.4907C443.361 50.3987 443.499 50.3985 443.591 50.4905L443.66 50.5366C445.201 52.0774 445.201 54.5609 443.683 56.1246C443.453 56.3546 443.2 56.5616 442.924 56.7225C442.855 56.7455 442.809 56.7685 442.786 56.7685ZM440.486 53.9169L442.809 56.2396C442.993 56.1246 443.177 55.9637 443.315 55.8257C444.626 54.5149 444.695 52.3763 443.43 50.9966L440.486 53.9169Z" fill="#FF6C37"/>
<path d="M438.693 56.4466C438.141 55.8947 437.244 55.8947 436.692 56.4466L428.023 65.116L429.472 66.5648L438.647 58.5162C439.245 58.0103 439.291 57.1135 438.785 56.5156C438.739 56.4926 438.716 56.4696 438.693 56.4466Z" fill="white"/>
<path d="M429.449 66.7948C429.38 66.7948 429.334 66.7718 429.288 66.7258L427.839 65.2771C427.747 65.1851 427.747 65.0471 427.839 64.9552L436.508 56.2857C437.152 55.6418 438.187 55.6418 438.831 56.2857C439.475 56.9296 439.475 57.9644 438.831 58.6083C438.808 58.6313 438.785 58.6543 438.762 58.6773L429.587 66.7258C429.564 66.7718 429.518 66.7948 429.449 66.7948ZM428.345 65.1161L429.472 66.2429L438.486 58.3324C438.992 57.9184 439.038 57.1596 438.624 56.6537C438.21 56.1477 437.451 56.1018 436.945 56.5157C436.922 56.5387 436.899 56.5617 436.853 56.5847L428.345 65.1161Z" fill="#FF6C37"/>
<path d="M421.377 74.9814C421.285 75.0274 421.239 75.1193 421.262 75.2113L421.653 76.867C421.745 77.097 421.607 77.3729 421.354 77.4419C421.17 77.5109 420.963 77.4419 420.848 77.3039L418.319 74.7974L426.574 66.5419L429.426 66.5879L431.357 68.5195C430.898 68.9105 428.115 71.601 421.377 74.9814Z" fill="white"/>
<path d="M421.193 77.6717C421.009 77.6717 420.825 77.6027 420.71 77.4647L418.204 74.9582C418.158 74.9122 418.135 74.8662 418.135 74.7972C418.135 74.7282 418.158 74.6822 418.204 74.6362L426.459 66.3807C426.505 66.3347 426.574 66.3117 426.62 66.3117L429.472 66.3577C429.54 66.3577 429.586 66.3807 429.632 66.4267L431.564 68.3584C431.61 68.4044 431.633 68.4734 431.633 68.5423C431.633 68.6113 431.61 68.6573 431.541 68.7033L431.38 68.8413C428.943 70.9799 425.631 73.1185 421.515 75.1651L421.906 76.7979C421.975 77.0968 421.837 77.4187 421.561 77.5797C421.423 77.6487 421.308 77.6717 421.193 77.6717ZM418.663 74.7972L421.032 77.1428C421.101 77.2578 421.239 77.3038 421.354 77.2348C421.469 77.1658 421.515 77.0278 421.446 76.9128L421.055 75.2571C421.009 75.0502 421.101 74.8662 421.285 74.7742C425.355 72.7276 428.644 70.612 431.058 68.5193L429.357 66.8177L426.712 66.7717L418.663 74.7972Z" fill="#FF6C37"/>
<path d="M416.364 76.775L418.342 74.7974L421.285 77.7409L416.594 77.4189C416.387 77.3959 416.249 77.212 416.272 77.005C416.272 76.913 416.295 76.821 416.364 76.775Z" fill="white"/>
<path d="M421.285 77.9477L416.571 77.6258C416.226 77.6028 415.996 77.3038 416.019 76.9589C416.042 76.8209 416.088 76.683 416.203 76.591L418.181 74.6133C418.273 74.5213 418.411 74.5213 418.503 74.6133L421.446 77.5568C421.515 77.6258 421.538 77.7178 421.492 77.8098C421.446 77.9017 421.377 77.9477 421.285 77.9477ZM418.342 75.1192L416.525 76.9359C416.456 76.9819 416.456 77.0969 416.525 77.1429C416.548 77.1659 416.571 77.1889 416.617 77.1889L420.687 77.4648L418.342 75.1192Z" fill="#FF6C37"/>
<path d="M425.769 67.5996C425.631 67.5996 425.539 67.4846 425.539 67.3697C425.539 67.3007 425.562 67.2547 425.608 67.2087L427.839 64.9781C427.931 64.8861 428.069 64.8861 428.161 64.9781L429.61 66.4268C429.679 66.4958 429.702 66.5648 429.679 66.6568C429.656 66.7258 429.587 66.7948 429.495 66.8178L425.815 67.5996C425.792 67.5996 425.769 67.5996 425.769 67.5996ZM428 65.461L426.482 66.9787L428.966 66.4498L428 65.461Z" fill="#FF6C37"/>
<path d="M429.426 66.5879L426.896 67.1398C426.712 67.1858 426.528 67.0708 426.482 66.8868C426.459 66.7719 426.482 66.6569 426.574 66.5649L427.977 65.1622L429.426 66.5879Z" fill="white"/>
<path d="M426.85 67.3697C426.528 67.3697 426.275 67.1167 426.275 66.7948C426.275 66.6338 426.344 66.4958 426.436 66.3808L427.839 64.9781C427.931 64.8861 428.069 64.8861 428.161 64.9781L429.61 66.4268C429.679 66.4958 429.702 66.5648 429.679 66.6568C429.656 66.7258 429.587 66.7948 429.495 66.8178L426.965 67.3697C426.919 67.3697 426.873 67.3697 426.85 67.3697ZM428 65.461L426.758 66.7028C426.712 66.7488 426.712 66.7948 426.735 66.8407C426.758 66.8867 426.804 66.9097 426.873 66.9097L428.989 66.4498L428 65.461Z" fill="#FF6C37"/>
<path d="M443.522 52.9284C443.476 52.7904 443.315 52.7214 443.177 52.7674C443.039 52.8134 442.97 52.9744 443.016 53.1124C443.016 53.1354 443.039 53.1584 443.039 53.1814C443.177 53.4573 443.131 53.8022 442.947 54.0552C442.855 54.1702 442.878 54.3311 442.97 54.4231C443.085 54.5151 443.246 54.4921 443.338 54.3771C443.683 53.9402 443.752 53.3883 443.522 52.9284Z" fill="#FF6C37"/>
</g>
<g style="mix-blend-mode:luminosity">
<path d="M681.592 68.951V61.8439C681.592 61.6584 681.468 61.5349 681.281 61.5349H678.918V58.7537H681.281C681.468 58.7537 681.592 58.6301 681.592 58.4447V53.9951H684.951V58.4447C684.951 58.6301 685.075 58.7537 685.262 58.7537H688.558V61.5349H685.262C685.075 61.5349 684.951 61.6584 684.951 61.8439V68.1477C684.951 71.1142 686.008 71.3613 687.376 71.3613C687.874 71.3613 688.62 71.2995 689.056 71.2377V74.1423C688.496 74.2042 687.563 74.3278 686.506 74.3278C685.2 74.266 681.592 74.266 681.592 68.951ZM772.895 70.6815L775.631 69.26C776.253 70.6815 777.435 71.6085 778.803 71.6085C779.861 71.6085 781.042 71.1758 781.042 69.878C781.042 69.0128 780.483 68.5184 779.176 68.0859L777.311 67.4679C774.698 66.6644 773.392 65.1812 773.392 63.0799C773.392 60.4224 775.631 58.4447 778.679 58.4447C781.104 58.4447 783.157 59.7426 784.152 61.782L781.415 63.2652C780.793 61.9674 779.798 61.2259 778.617 61.2259C777.435 61.2259 776.626 61.8439 776.626 62.7709C776.626 63.5742 777.248 64.1924 778.492 64.563L780.358 65.1812C783.095 66.0464 784.401 67.5295 784.401 69.569C784.401 72.7828 781.602 74.4515 778.803 74.4515C776.004 74.3897 773.765 72.9682 772.895 70.6815ZM762.57 67.9004C762.508 67.9622 762.446 68.024 762.446 68.0859V74.0188H759.025V52.0791H762.446V64.0687C762.446 64.1924 762.508 64.3159 762.632 64.3159C762.757 64.3777 762.881 64.3159 762.944 64.254L768.479 58.6919H772.646L766.178 65.1812C766.053 65.3047 766.053 65.4284 766.178 65.5519L773.206 74.0188H769.039L763.628 67.3442C763.565 67.2824 763.503 67.2205 763.441 67.2205C763.379 67.2205 763.317 67.2205 763.254 67.2824L762.57 67.9004ZM757.346 60.7932L755.169 62.8327C753.925 61.9057 752.681 61.473 751.313 61.473C748.452 61.473 746.337 63.5742 746.337 66.4172C746.337 69.26 748.452 71.3613 751.313 71.3613C752.557 71.3613 753.863 70.9287 755.231 70.0017L757.159 72.0412C754.361 74.0807 752.868 74.4515 750.94 74.4515C748.639 74.4515 746.586 73.648 745.093 72.1647C743.663 70.7433 742.854 68.642 742.854 66.4172C742.854 61.782 746.275 58.3829 751.002 58.3829C752.557 58.3829 754.858 58.6301 757.346 60.7932ZM741.3 54.1804C741.3 55.2929 740.367 56.2199 739.247 56.2199C738.128 56.2199 737.195 55.2929 737.195 54.1804C737.195 53.0679 738.128 52.1409 739.247 52.1409C740.367 52.1409 741.3 53.0679 741.3 54.1804ZM740.989 74.0188H737.568V58.7537H740.989V74.0188ZM730.105 67.3442V74.0807H726.684V58.8156H730.042V60.6696C730.042 60.7932 730.105 60.9169 730.229 60.9786C730.353 61.0404 730.478 60.9786 730.54 60.855C731.411 59.4336 733.028 58.5066 734.769 58.5066C735.018 58.5066 735.205 58.5066 735.329 58.5684V62.0292C735.142 61.9674 734.831 61.9674 734.52 61.9674C731.784 61.9057 730.105 64.0069 730.105 67.3442ZM711.757 66.4172C711.757 63.636 713.872 61.473 716.608 61.473C719.345 61.473 721.459 63.636 721.459 66.4172C721.459 69.1982 719.345 71.3613 716.608 71.3613C713.872 71.3613 711.757 69.1982 711.757 66.4172ZM712.068 72.2265C712.13 72.2265 712.13 72.2265 712.192 72.2265C712.254 72.2265 712.379 72.2883 712.441 72.3502C713.623 73.7098 715.364 74.4515 717.355 74.4515C721.584 74.4515 724.818 70.9287 724.818 66.4172C724.818 64.1924 724.072 62.2147 722.641 60.6696C721.273 59.1864 719.345 58.3829 717.292 58.3829C715.364 58.3829 713.561 59.1864 712.379 60.6077C712.317 60.6696 712.192 60.7314 712.068 60.6696C711.943 60.6077 711.881 60.5461 711.881 60.4224V52.1409H708.461V74.0807H711.881V72.5355C711.881 72.3502 711.943 72.2883 712.068 72.2265ZM697.887 71.3613C695.213 71.3613 693.036 69.1982 693.036 66.4172C693.036 63.636 695.151 61.473 697.887 61.473C700.624 61.473 702.739 63.636 702.739 66.4172C702.739 69.1982 700.562 71.3613 697.887 71.3613ZM705.911 74.0188V58.7537H702.552V60.2987C702.552 60.4224 702.49 60.546 702.366 60.546C702.241 60.6077 702.117 60.546 702.054 60.4842C700.935 59.1246 699.194 58.3829 697.141 58.3829C692.912 58.3829 689.678 61.9057 689.678 66.4172C689.678 70.9287 692.974 74.4515 697.141 74.4515C699.069 74.4515 700.873 73.648 702.054 72.2265C702.117 72.103 702.241 72.103 702.366 72.1647C702.49 72.2265 702.552 72.2883 702.552 72.412V74.0807H705.911V74.0188ZM669.091 71.3613C666.417 71.3613 664.24 69.1982 664.24 66.4172C664.24 63.636 666.355 61.473 669.091 61.473C671.765 61.473 673.942 63.636 673.942 66.4172C673.942 69.1982 671.765 71.3613 669.091 71.3613ZM677.114 74.0188V58.7537H673.756V60.2987C673.756 60.4224 673.694 60.546 673.569 60.546C673.445 60.6077 673.32 60.546 673.258 60.4842C672.139 59.1246 670.397 58.3829 668.345 58.3829C664.115 58.3829 660.881 61.9057 660.881 66.4172C660.881 70.9287 664.178 74.4515 668.345 74.4515C670.273 74.4515 672.077 73.648 673.258 72.2265C673.32 72.103 673.445 72.103 673.569 72.1647C673.694 72.2265 673.756 72.2883 673.756 72.412V74.0807H677.114V74.0188ZM650.93 71.3613C648.194 71.3613 646.079 69.1982 646.079 66.4172C646.079 63.636 648.194 61.473 650.93 61.473C653.605 61.473 655.781 63.636 655.781 66.4172C655.781 69.1982 653.605 71.3613 650.93 71.3613ZM658.953 74.0188V52.1409H655.533V60.3606C655.533 60.4842 655.47 60.6077 655.346 60.6077C655.222 60.6696 655.097 60.6077 655.035 60.546C653.853 59.1864 652.112 58.4447 650.122 58.4447C645.892 58.4447 642.658 61.9674 642.658 66.479C642.658 68.7039 643.405 70.6815 644.835 72.2265C646.203 73.7098 648.131 74.5132 650.184 74.5132C652.112 74.5132 653.916 73.7098 655.097 72.2883C655.159 72.2265 655.284 72.1647 655.408 72.2265C655.533 72.2883 655.595 72.3502 655.595 72.4738V74.0807H658.953V74.0188Z" fill="#707070"/>
<path d="M633.999 60.7622L621.228 68.0056L607.643 60.288L607 60.6328V66.2379L621.228 74.3436L633.999 67.1002V70.0751L621.228 77.3186L607.643 69.6008L607 69.9458V70.8944L621.228 79L635.499 70.8944V65.2893L634.856 64.9443L621.228 72.6621L608.5 65.4186V62.4868L621.228 69.6871L635.499 61.5814V56.0626L634.771 55.6746L621.228 63.3491L609.186 56.4937L621.228 49.6815L631.171 55.2865L632.071 54.8122V54.1224L621.228 48L607 56.0626V56.9249L621.228 65.0306L633.999 57.7872V60.7622Z" fill="#FF3621"/>
</g>
<g style="mix-blend-mode:luminosity" clip-path="url(#clip1_24277_1998)">
<path d="M900.547 54.05C900.547 55.4915 899.386 56.6527 897.944 56.6527C896.503 56.6527 895.342 55.4915 895.342 54.05C895.342 52.6086 896.463 51.4474 897.944 51.4474C899.426 51.4875 900.547 52.6486 900.547 54.05ZM889.816 59.2953C889.816 59.5355 889.816 59.9359 889.816 59.9359C889.816 59.9359 888.575 58.3343 885.932 58.3343C881.568 58.3343 878.165 61.6577 878.165 66.2623C878.165 70.8268 881.528 74.1902 885.932 74.1902C888.615 74.1902 889.816 72.5485 889.816 72.5485V73.2292C889.816 73.5495 890.056 73.7898 890.377 73.7898H893.62V58.7347C893.62 58.7347 890.657 58.7347 890.377 58.7347C890.056 58.7347 889.816 59.015 889.816 59.2953ZM889.816 68.9449C889.216 69.8258 888.014 70.5866 886.573 70.5866C884.01 70.5866 882.048 68.985 882.048 66.2623C882.048 63.5395 884.01 61.9379 886.573 61.9379C887.974 61.9379 889.256 62.7387 889.816 63.5796V68.9449ZM896.022 58.7347H899.866V73.7898H896.022V58.7347ZM953.44 58.3343C950.797 58.3343 949.556 59.9359 949.556 59.9359V51.4875H945.712V73.7898C945.712 73.7898 948.675 73.7898 948.955 73.7898C949.276 73.7898 949.516 73.5095 949.516 73.2292V72.5485C949.516 72.5485 950.757 74.1902 953.4 74.1902C957.764 74.1902 961.168 70.8268 961.168 66.2623C961.168 61.6977 957.764 58.3343 953.44 58.3343ZM952.799 70.5465C951.318 70.5465 950.157 69.7858 949.556 68.9049V63.5395C950.157 62.7387 951.438 61.8979 952.799 61.8979C955.362 61.8979 957.324 63.4995 957.324 66.2222C957.324 68.9449 955.362 70.5465 952.799 70.5465ZM943.71 64.8609V73.8298H939.866V65.3013C939.866 62.8188 939.065 61.8178 936.903 61.8178C935.742 61.8178 934.541 62.4184 933.78 63.2993V73.7898H929.936V58.7347H932.979C933.3 58.7347 933.54 59.015 933.54 59.2953V59.9359C934.661 58.7748 936.143 58.3343 937.624 58.3343C939.306 58.3343 940.707 58.8148 941.828 59.7758C943.19 60.8969 943.71 62.3383 943.71 64.8609ZM920.607 58.3343C917.964 58.3343 916.723 59.9359 916.723 59.9359V51.4875H912.879V73.7898C912.879 73.7898 915.842 73.7898 916.123 73.7898C916.443 73.7898 916.683 73.5095 916.683 73.2292V72.5485C916.683 72.5485 917.924 74.1902 920.567 74.1902C924.931 74.1902 928.335 70.8268 928.335 66.2623C928.375 61.6977 924.971 58.3343 920.607 58.3343ZM919.966 70.5465C918.485 70.5465 917.324 69.7858 916.723 68.9049V63.5395C917.324 62.7387 918.605 61.8979 919.966 61.8979C922.529 61.8979 924.491 63.4995 924.491 66.2222C924.491 68.9449 922.529 70.5465 919.966 70.5465ZM909.556 58.3343C910.717 58.3343 911.318 58.5345 911.318 58.5345V62.0981C911.318 62.0981 908.115 61.017 906.113 63.2993V73.8298H902.269V58.7347C902.269 58.7347 905.232 58.7347 905.512 58.7347C905.832 58.7347 906.072 59.015 906.072 59.2953V59.9359C906.793 59.0951 908.355 58.3343 909.556 58.3343ZM869.636 72.4284C869.436 71.9479 869.236 71.4274 869.035 70.987C868.715 70.2663 868.395 69.5856 868.115 68.9449L868.074 68.9049C865.312 62.8989 862.349 56.8128 859.226 50.8068L859.106 50.5666C858.785 49.966 858.465 49.3253 858.145 48.6847C857.744 47.964 857.344 47.2032 856.703 46.4825C855.422 44.8809 853.58 44 851.618 44C849.616 44 847.814 44.8809 846.493 46.4024C845.892 47.1231 845.452 47.8839 845.051 48.6046C844.731 49.2452 844.411 49.8859 844.091 50.4865L843.97 50.7267C840.887 56.7327 837.884 62.8188 835.122 68.8248L835.082 68.9049C834.801 69.5455 834.481 70.2262 834.161 70.9469C833.96 71.3874 833.76 71.8679 833.56 72.3884C833.039 73.8699 832.879 75.2713 833.08 76.7127C833.52 79.7157 835.522 82.2382 838.285 83.3594C839.326 83.7998 840.407 84 841.528 84C841.848 84 842.249 83.96 842.569 83.9199C843.89 83.7598 845.252 83.3193 846.573 82.5586C848.215 81.6376 849.776 80.3163 851.538 78.3944C853.3 80.3163 854.901 81.6376 856.503 82.5586C857.824 83.3193 859.186 83.7598 860.507 83.9199C860.827 83.96 861.228 84 861.548 84C862.669 84 863.79 83.7998 864.791 83.3594C867.594 82.2382 869.556 79.6757 869.996 76.7127C870.317 75.3113 870.157 73.9099 869.636 72.4284ZM851.578 74.5105C849.416 71.7878 848.014 69.2252 847.534 67.0631C847.334 66.1421 847.294 65.3413 847.414 64.6206C847.494 63.98 847.734 63.4194 848.054 62.9389C848.815 61.8579 850.097 61.1772 851.578 61.1772C853.059 61.1772 854.381 61.8178 855.102 62.9389C855.422 63.4194 855.662 63.98 855.742 64.6206C855.862 65.3413 855.822 66.1822 855.622 67.0631C855.142 69.1852 853.74 71.7477 851.578 74.5105ZM867.554 76.3924C867.274 78.4745 865.872 80.2763 863.91 81.0771C862.949 81.4775 861.908 81.5976 860.867 81.4775C859.866 81.3574 858.865 81.037 857.824 80.4364C856.383 79.6356 854.941 78.3944 853.26 76.5526C855.902 73.3093 857.504 70.3463 858.105 67.7037C858.385 66.4625 858.425 65.3413 858.305 64.3003C858.145 63.2993 857.784 62.3784 857.224 61.5776C855.982 59.7758 853.9 58.7347 851.578 58.7347C849.256 58.7347 847.174 59.8158 845.932 61.5776C845.372 62.3784 845.011 63.2993 844.851 64.3003C844.691 65.3413 844.731 66.5025 845.051 67.7037C845.652 70.3463 847.294 73.3493 849.896 76.5926C848.255 78.4344 846.773 79.6757 845.332 80.4765C844.291 81.0771 843.29 81.3974 842.289 81.5175C841.208 81.6376 840.167 81.4775 839.246 81.1171C837.284 80.3163 835.882 78.5145 835.602 76.4324C835.482 75.4314 835.562 74.4304 835.962 73.3093C836.083 72.9089 836.283 72.5085 836.483 72.028C836.763 71.3874 837.084 70.7067 837.404 70.026L837.444 69.9459C840.207 63.98 843.17 57.8939 846.253 51.968L846.373 51.7277C846.693 51.1271 847.013 50.4865 847.334 49.8859C847.654 49.2452 848.014 48.6446 848.455 48.1241C849.296 47.1632 850.417 46.6426 851.658 46.6426C852.899 46.6426 854.02 47.1632 854.861 48.1241C855.302 48.6446 855.662 49.2452 855.982 49.8859C856.303 50.4865 856.623 51.1271 856.943 51.7277L857.063 51.968C860.107 57.9339 863.069 64.02 865.832 69.986V70.026C866.153 70.6667 866.433 71.3874 866.753 72.028C866.953 72.5085 867.154 72.9089 867.274 73.3093C867.594 74.3503 867.714 75.3514 867.554 76.3924Z" fill="#FF5A5F"/>
</g>
<g style="mix-blend-mode:luminosity">
<path d="M1054.05 54.0126H1061.67C1066.53 54.0126 1070.55 56.8242 1070.55 63.2437V64.5926C1070.55 71.0609 1066.79 73.9699 1061.82 73.9699H1054.05V54.0126ZM1058.31 57.6368V70.3295H1061.58C1064.34 70.3295 1066.19 68.5256 1066.19 64.5113V63.455C1066.19 59.4407 1064.24 57.6368 1061.43 57.6368H1058.31ZM1072.81 57.8318H1076.22L1076.77 61.586C1077.42 59.0344 1079.08 57.6693 1082.09 57.6693H1083.14V61.976H1081.39C1077.92 61.976 1077.08 63.1787 1077.08 66.5916V74.0187H1072.87V57.8318H1072.81ZM1083.99 66.2503V65.7952C1083.99 60.3834 1087.45 57.4255 1092.16 57.4255C1096.97 57.4255 1100.34 60.3834 1100.34 65.7952V66.2503C1100.34 71.5647 1097.07 74.425 1092.16 74.425C1086.94 74.3762 1083.99 71.5809 1083.99 66.2503ZM1096.03 66.2015V65.7952C1096.03 62.7886 1094.52 60.9847 1092.11 60.9847C1089.76 60.9847 1088.2 62.6424 1088.2 65.7952V66.2015C1088.2 69.1106 1089.71 70.7683 1092.11 70.7683C1094.52 70.7196 1096.03 69.1106 1096.03 66.2015ZM1102.55 57.8318H1106.06L1106.46 60.8872C1107.31 58.8394 1109.11 57.4255 1111.78 57.4255C1115.89 57.4255 1118.6 60.3834 1118.6 65.8602V66.3153C1118.6 71.6297 1115.6 74.4412 1111.78 74.4412C1109.23 74.4412 1107.47 73.2874 1106.61 71.4346V79.6094H1102.5L1102.55 57.8318ZM1114.33 66.2015V65.844C1114.33 62.6261 1112.67 61.0334 1110.46 61.0334C1108.1 61.0334 1106.54 62.8374 1106.54 65.844V66.1528C1106.54 69.0131 1108.06 70.8171 1110.41 70.8171C1112.83 70.7683 1114.33 69.2244 1114.33 66.2015ZM1124.83 71.0283L1124.47 73.9862H1120.86V52.4199H1124.97V60.6921C1125.88 58.5794 1127.69 57.4255 1130.24 57.4255C1134.11 57.4743 1136.97 60.1396 1136.97 65.5027V66.0065C1136.97 71.3696 1134.25 74.4412 1130.14 74.4412C1127.43 74.3762 1125.67 73.1248 1124.83 71.0283ZM1132.64 66.0065V65.6002C1132.64 62.6424 1131.04 60.9847 1128.78 60.9847C1126.47 60.9847 1124.86 62.8374 1124.86 65.649V66.0065C1124.86 69.0131 1126.42 70.7683 1128.73 70.7683C1131.2 70.7683 1132.64 69.2244 1132.64 66.0065ZM1138.77 66.2503V65.7952C1138.77 60.3834 1142.23 57.4255 1146.95 57.4255C1151.76 57.4255 1155.12 60.3834 1155.12 65.7952V66.2503C1155.12 71.5647 1151.81 74.425 1146.95 74.425C1141.73 74.3762 1138.77 71.5809 1138.77 66.2503ZM1150.85 66.2015V65.7952C1150.85 62.7886 1149.34 60.9847 1146.93 60.9847C1144.57 60.9847 1143.01 62.6424 1143.01 65.7952V66.2015C1143.01 69.1106 1144.53 70.7683 1146.93 70.7683C1149.35 70.7196 1150.85 69.1106 1150.85 66.2015ZM1160.63 65.6002L1154.96 57.8318H1159.82L1163.08 62.6911L1166.4 57.8318H1171.21L1165.46 65.5515L1171.52 73.9862H1166.76L1163.05 68.6231L1159.44 73.9862H1154.47L1160.63 65.6002Z" fill="#707070"/>
<path d="M1027.85 54.0132L1018.43 60.0264L1027.85 66.0396L1018.43 72.0528L1009 66.0071L1018.43 59.9939L1009 54.0132L1018.43 48L1027.85 54.0132ZM1018.38 73.9868L1027.8 67.9736L1037.23 73.9868L1027.8 80L1018.38 73.9868ZM1027.85 66.0071L1037.28 59.9939L1027.85 54.0132L1037.23 48L1046.66 54.0132L1037.23 60.0264L1046.66 66.0396L1037.23 72.0528L1027.85 66.0071Z" fill="#0061FF"/>
</g>
<g style="mix-blend-mode:luminosity">
<path d="M1273.21 52.7715H1265.34C1264.8 52.7715 1264.34 53.163 1264.26 53.695L1261.07 73.8891C1261.01 74.2875 1261.32 74.6468 1261.72 74.6468H1265.48C1266.02 74.6468 1266.48 74.2553 1266.56 73.7222L1267.42 68.2755C1267.5 67.7423 1267.96 67.3508 1268.5 67.3508H1270.99C1276.18 67.3508 1279.17 64.8405 1279.96 59.866C1280.31 57.6896 1279.97 55.9796 1278.95 54.782C1277.83 53.467 1275.85 52.7715 1273.21 52.7715ZM1274.12 60.1469C1273.69 62.9728 1271.53 62.9728 1269.44 62.9728H1268.26L1269.09 57.6954C1269.14 57.3764 1269.41 57.1415 1269.74 57.1415H1270.28C1271.7 57.1415 1273.05 57.1415 1273.74 57.9522C1274.15 58.4358 1274.28 59.1543 1274.12 60.1469Z" fill="#253B80"/>
<path d="M1296.75 60.056H1292.98C1292.66 60.056 1292.38 60.2909 1292.33 60.6098L1292.17 61.6646L1291.9 61.2823C1291.09 60.0974 1289.27 59.7013 1287.45 59.7013C1283.28 59.7013 1279.72 62.8576 1279.03 67.2852C1278.67 69.4938 1279.18 71.6057 1280.43 73.0784C1281.58 74.4326 1283.23 74.9969 1285.18 74.9969C1288.54 74.9969 1290.4 72.8378 1290.4 72.8378L1290.24 73.8857C1290.17 74.2864 1290.48 74.6457 1290.88 74.6457H1294.28C1294.82 74.6457 1295.28 74.2541 1295.36 73.721L1297.4 60.8137C1297.46 60.4164 1297.16 60.056 1296.75 60.056ZM1291.5 67.3957C1291.13 69.5502 1289.42 70.9965 1287.24 70.9965C1286.15 70.9965 1285.27 70.6453 1284.71 69.9797C1284.15 69.3187 1283.94 68.378 1284.12 67.3301C1284.46 65.194 1286.2 63.7005 1288.34 63.7005C1289.41 63.7005 1290.28 64.0563 1290.86 64.7277C1291.43 65.4059 1291.66 66.3524 1291.5 67.3957Z" fill="#253B80"/>
<path d="M1316.84 60.0559H1313.05C1312.69 60.0559 1312.35 60.2355 1312.14 60.5361L1306.92 68.2351L1304.7 60.8366C1304.56 60.3737 1304.13 60.0559 1303.65 60.0559H1299.93C1299.47 60.0559 1299.16 60.4981 1299.3 60.9242L1303.48 73.174L1299.55 78.7139C1299.24 79.1503 1299.55 79.7503 1300.09 79.7503H1303.87C1304.23 79.7503 1304.57 79.5752 1304.77 79.2805L1317.38 61.0865C1317.68 60.6512 1317.37 60.0559 1316.84 60.0559Z" fill="#253B80"/>
<path d="M1329.38 52.7717H1321.51C1320.97 52.7717 1320.51 53.1632 1320.43 53.6952L1317.24 73.8894C1317.18 74.2878 1317.49 74.6471 1317.89 74.6471H1321.93C1322.31 74.6471 1322.63 74.373 1322.69 73.9999L1323.59 68.2757C1323.67 67.7426 1324.13 67.3511 1324.67 67.3511H1327.16C1332.35 67.3511 1335.34 64.8408 1336.13 59.8662C1336.48 57.6898 1336.14 55.9798 1335.12 54.7823C1334 53.4672 1332.02 52.7717 1329.38 52.7717ZM1330.29 60.1472C1329.86 62.973 1327.7 62.973 1325.62 62.973H1324.43L1325.26 57.6956C1325.31 57.3766 1325.59 57.1417 1325.91 57.1417H1326.45C1327.88 57.1417 1329.22 57.1417 1329.91 57.9524C1330.33 58.436 1330.45 59.1546 1330.29 60.1472Z" fill="#179BD7"/>
<path d="M1352.92 60.0562H1349.15C1348.83 60.0562 1348.56 60.2911 1348.51 60.6101L1348.34 61.6649L1348.08 61.2826C1347.26 60.0977 1345.44 59.7015 1343.62 59.7015C1339.46 59.7015 1335.9 62.8578 1335.2 67.2854C1334.84 69.494 1335.35 71.6059 1336.61 73.0787C1337.76 74.4329 1339.4 74.9971 1341.36 74.9971C1344.72 74.9971 1346.58 72.838 1346.58 72.838L1346.41 73.8859C1346.35 74.2866 1346.65 74.6459 1347.06 74.6459H1350.45C1350.99 74.6459 1351.45 74.2544 1351.53 73.7212L1353.57 60.8139C1353.64 60.4166 1353.33 60.0562 1352.92 60.0562ZM1347.67 67.396C1347.31 69.5504 1345.59 70.9967 1343.41 70.9967C1342.32 70.9967 1341.44 70.6455 1340.88 69.98C1340.32 69.319 1340.11 68.3782 1340.29 67.3303C1340.63 65.1943 1342.37 63.7007 1344.51 63.7007C1345.58 63.7007 1346.46 64.0566 1347.03 64.7279C1347.61 65.4061 1347.83 66.3527 1347.67 67.396Z" fill="#179BD7"/>
<path d="M1357.37 53.3255L1354.14 73.8893C1354.07 74.2877 1354.38 74.647 1354.78 74.647H1358.03C1358.57 74.647 1359.03 74.2555 1359.12 73.7223L1362.3 53.5294C1362.37 53.1309 1362.06 52.7705 1361.66 52.7705H1358.02C1357.7 52.7717 1357.42 53.0066 1357.37 53.3255Z" fill="#179BD7"/>
<path d="M1228.37 78.5713L1228.97 74.746L1227.63 74.7149H1221.22L1225.67 46.4878C1225.69 46.4026 1225.73 46.3231 1225.8 46.2667C1225.86 46.2103 1225.95 46.1792 1226.04 46.1792H1236.84C1240.42 46.1792 1242.9 46.9254 1244.19 48.3982C1244.8 49.0891 1245.18 49.8111 1245.37 50.6056C1245.56 51.4393 1245.57 52.4354 1245.38 53.6502L1245.36 53.7389V54.5173L1245.97 54.8605C1246.48 55.1311 1246.88 55.4408 1247.19 55.7955C1247.71 56.3862 1248.05 57.137 1248.19 58.0271C1248.34 58.9426 1248.29 60.0319 1248.05 61.2652C1247.77 62.6839 1247.32 63.9194 1246.72 64.9305C1246.17 65.862 1245.46 66.6347 1244.62 67.2335C1243.82 67.8024 1242.87 68.2342 1241.79 68.5105C1240.75 68.7823 1239.56 68.9193 1238.25 68.9193H1237.41C1236.81 68.9193 1236.23 69.1358 1235.77 69.5239C1235.31 69.92 1235 70.4612 1234.91 71.0531L1234.85 71.3974L1233.78 78.1395L1233.74 78.3871C1233.72 78.4654 1233.7 78.5045 1233.67 78.531C1233.64 78.5552 1233.6 78.5713 1233.56 78.5713H1228.37Z" fill="#253B80"/>
<path d="M1246.54 53.8286C1246.51 54.0347 1246.47 54.2455 1246.43 54.4619C1245 61.7752 1240.13 64.3016 1233.91 64.3016H1230.74C1229.98 64.3016 1229.34 64.8544 1229.22 65.6052L1227.59 75.8951L1227.13 78.8119C1227.06 79.3047 1227.44 79.7492 1227.94 79.7492H1233.56C1234.22 79.7492 1234.79 79.2656 1234.89 78.6092L1234.95 78.3236L1236.01 71.608L1236.07 71.2395C1236.18 70.5809 1236.74 70.0972 1237.41 70.0972H1238.25C1243.69 70.0972 1247.96 67.8863 1249.2 61.4885C1249.72 58.8158 1249.45 56.5842 1248.08 55.0147C1247.66 54.5414 1247.14 54.1487 1246.54 53.8286Z" fill="#179BD7"/>
<path d="M1245.05 53.2344C1244.83 53.1711 1244.61 53.1135 1244.38 53.0617C1244.15 53.011 1243.91 52.9661 1243.67 52.927C1242.81 52.7888 1241.88 52.7231 1240.87 52.7231H1232.41C1232.2 52.7231 1232 52.7704 1231.82 52.8556C1231.43 53.0433 1231.14 53.4129 1231.07 53.8654L1229.27 65.2724L1229.22 65.6051C1229.34 64.8544 1229.98 64.3016 1230.74 64.3016H1233.91C1240.13 64.3016 1245.01 61.7741 1246.43 54.4619C1246.47 54.2454 1246.51 54.0347 1246.54 53.8286C1246.18 53.6374 1245.79 53.4739 1245.37 53.3346C1245.27 53.3001 1245.16 53.2667 1245.05 53.2344Z" fill="#222D65"/>
<path d="M1231.07 53.8655C1231.14 53.413 1231.43 53.0433 1231.82 52.8568C1232 52.7716 1232.2 52.7244 1232.41 52.7244H1240.87C1241.87 52.7244 1242.81 52.79 1243.66 52.9282C1243.91 52.9673 1244.15 53.0122 1244.38 53.0629C1244.61 53.1147 1244.83 53.1723 1245.05 53.2356C1245.16 53.2679 1245.27 53.3013 1245.37 53.3347C1245.79 53.474 1246.18 53.6387 1246.54 53.8287C1246.97 51.1261 1246.54 49.2859 1245.08 47.6197C1243.47 45.7853 1240.56 45 1236.84 45H1226.04C1225.28 45 1224.63 45.5527 1224.51 46.3047L1220.01 74.8219C1219.92 75.3862 1220.36 75.8952 1220.93 75.8952H1227.6L1229.27 65.2724L1231.07 53.8655Z" fill="#253B80"/>
</g>
<g style="mix-blend-mode:luminosity" clip-path="url(#clip2_24277_1998)">
<path d="M1426.26 78.0663C1424.59 78.3595 1422.89 78.4474 1421.14 78.6816L1415.78 62.9786V79.3555C1414.11 79.5313 1412.58 79.7656 1411 80V50H1415.45L1421.55 67.0217V50H1426.26V78.0663ZM1435.49 60.9863C1437.31 60.9863 1440.09 60.8984 1441.76 60.8984V65.5858C1439.68 65.5858 1437.25 65.5858 1435.49 65.6737V72.6465C1438.25 72.4708 1441 72.2362 1443.78 72.1483V76.6597L1430.8 77.6854V50H1443.78V54.6875H1435.49V60.9863ZM1461.21 54.6876H1456.35V76.2501C1454.77 76.2501 1453.19 76.2501 1451.66 76.3085V54.6876H1446.8V50H1461.22L1461.21 54.6876ZM1468.83 60.6642H1475.25V65.3516H1468.83V75.9864H1464.23V50H1477.33V54.6875H1468.83V60.6642ZM1484.95 71.8848C1487.61 71.9432 1490.31 72.1486 1492.91 72.2948V76.9238C1488.72 76.66 1484.54 76.3966 1480.26 76.3085V50H1484.95V71.8848ZM1496.87 77.2461C1498.36 77.3341 1499.95 77.422 1501.47 77.5975V50H1496.87V77.2461ZM1522.01 50L1516.06 64.2676L1522.01 80C1520.25 79.7656 1518.49 79.4433 1516.73 79.1503L1513.36 70.4786L1509.94 78.4474C1508.24 78.1542 1506.6 78.0663 1504.9 77.8319L1510.93 64.0917L1505.48 50H1510.52L1513.6 57.8809L1516.88 50H1522.01V50Z" fill="#D81F26"/>
</g>
<defs>
<clipPath id="clip0_24277_1998">
<rect width="114" height="48" fill="white" transform="translate(99 40)"/>
</clipPath>
<clipPath id="clip1_24277_1998">
<rect width="128" height="48" fill="white" transform="translate(833 40)"/>
</clipPath>
<clipPath id="clip2_24277_1998">
<rect width="111" height="48" fill="white" transform="translate(1411 40)"/>
</clipPath>
</defs>
</svg>
